<?xml version="1.0" standalone="no"?>
<!DOCTYPE svg PUBLIC "-//W3C//DTD SVG 1.1//EN" "http://www.w3.org/Graphics/SVG/1.1/DTD/svg11.dtd" >
<svg xmlns="http://www.w3.org/2000/svg">
<metadata>Generated by IcoMoon</metadata>
<defs>
<font id="foxtel-icons" horiz-adv-x="1024">
<font-face units-per-em="1024" ascent="960" descent="-64" />
<missing-glyph horiz-adv-x="1024" />
<glyph unicode="&#x20;" horiz-adv-x="512" d="" />
<glyph unicode="&#xe900;" glyph-name="arrow-bottom" d="M183.296 598.835c0-8.738 3.328-17.459 10.001-24.132l296.175-296.192c6.4-6.4 15.087-10.001 24.149-10.001s17.732 3.601 24.132 10.001l296.175 296.175c13.329 13.329 13.329 34.935 0 48.265-13.312 13.329-34.935 13.329-48.265 0l-272.043-272.026-272.043 272.026c-13.329 13.329-34.935 13.329-48.265 0-6.673-6.656-10.018-15.377-10.018-24.115z" />
<glyph unicode="&#xe901;" glyph-name="arrow-bottom-chevron" d="M520.004 254.379l-344.439 344.457 48.265 48.282 296.175-296.192 296.175 296.192 48.265-48.282z" />
<glyph unicode="&#xe902;" glyph-name="arrow-left" d="M734.131-43.341c13.107 0 26.189 4.992 36.198 15.002 19.994 19.994 19.994 52.403 0 72.397l-408.064 408.064 408.064 408.064c19.994 19.994 19.994 52.403 0 72.397-19.968 19.994-52.403 19.994-72.397 0l-444.262-444.262c-9.6-9.6-15.002-22.63-15.002-36.198s5.402-26.598 15.002-36.224l444.262-444.262c9.984-9.984 23.117-14.976 36.198-14.976z" />
<glyph unicode="&#xe903;" glyph-name="arrow-left-chevron" d="M731.998-63.731l71.734 71.707-440.051 440.024 440.051 439.997-71.734 71.734-511.731-511.731z" />
<glyph unicode="&#xe904;" glyph-name="arrow-left-thin" d="M730.786-38.696l-467.645 467.645c-5.066 5.039-7.896 11.911-7.896 19.052s2.829 13.986 7.896 19.052l467.645 467.645c10.536 10.536 27.567 10.536 38.104 0s10.536-27.567 0-38.104l-448.593-448.593 448.593-448.593c10.536-10.536 10.536-27.567 0-38.104-5.255-5.255-12.153-7.896-19.052-7.896s-13.797 2.614-19.052 7.896z" />
<glyph unicode="&#xe905;" glyph-name="arrow-right" d="M289.869-43.341c-13.107 0-26.189 4.992-36.198 15.002-19.994 19.994-19.994 52.403 0 72.397l408.064 408.064-408.064 408.064c-19.994 19.994-19.994 52.403 0 72.397 19.968 19.994 52.403 19.994 72.397 0l444.262-444.262c9.6-9.6 15.002-22.63 15.002-36.198s-5.402-26.598-15.002-36.224l-444.262-444.237c-9.984-10.010-23.117-15.002-36.198-15.002z" />
<glyph unicode="&#xe906;" glyph-name="arrow-right-chevron" d="M803.732 448l-511.731 511.731-71.734-71.734 440.051-439.997-440.051-440.024 71.734-71.707z" />
<glyph unicode="&#xe907;" glyph-name="arrow-right-thin" d="M282.193-46.592c-6.899 0-13.797 2.641-19.052 7.896-10.536 10.536-10.536 27.567 0 38.104l448.593 448.593-448.593 448.593c-10.536 10.536-10.536 27.567 0 38.104s27.567 10.536 38.104 0l467.645-467.645c5.066-5.066 7.896-11.911 7.896-19.052s-2.829-14.013-7.896-19.052l-467.645-467.645c-5.255-5.282-12.153-7.896-19.052-7.896z" />
<glyph unicode="&#xe908;" glyph-name="arrow-top" d="M183.296 302.643c0 8.738 3.328 17.459 10.001 24.132l296.175 296.192c6.4 6.4 15.087 10.001 24.149 10.001s17.732-3.601 24.132-10.001l296.175-296.175c13.329-13.329 13.329-34.935 0-48.265-13.312-13.329-34.935-13.329-48.265 0l-272.043 272.043-272.043-272.043c-13.329-13.329-34.935-13.329-48.265 0-6.673 6.656-10.018 15.394-10.018 24.115z" />
<glyph unicode="&#xe909;" glyph-name="arrow-top-chevron" d="M175.548 302.66l48.265-48.282 296.175 296.209 296.175-296.209 48.282 48.282-344.457 344.457z" />
<glyph unicode="&#xe90a;" glyph-name="at" d="M480.529 112.23c-42.854 0-82.551 7.543-119.091 22.665-36.54 15.138-68.215 36.079-94.976 62.857-26.778 26.778-47.718 58.283-62.857 94.515-15.121 36.233-22.682 75.127-22.682 116.719 0 51.661 10.411 100.028 31.232 145.084 20.821 45.039 48.418 84.429 82.825 118.135 34.389 33.707 74.308 60.331 119.723 79.855 45.431 19.524 92.757 29.303 141.978 29.303 44.169 0 84.531-8.038 121.139-24.098s67.959-37.973 94.174-65.69c26.197-27.733 46.541-60.348 61.065-97.826 14.507-37.495 21.76-77.961 21.76-121.446 0-34.662-3.806-65.212-11.401-91.682s-18.039-48.674-31.334-66.628c-13.261-17.954-28.638-31.642-46.029-41.097s-35.601-14.182-54.562-14.182c-25.293 0-45.227 8.346-59.802 25.054-14.575 16.691-21.828 36.062-21.828 58.112v5.683c-8.175-11.349-18.108-22.391-29.764-33.075-11.674-10.718-24.405-20.19-38.263-28.348-13.875-8.192-28.672-14.814-44.425-19.849-15.753-5.052-32.137-7.561-49.152-7.561-42.854 0-77.5 13.38-103.953 40.175-26.47 26.778-39.697 63.164-39.697 109.158 0 34.014 6.622 65.826 19.883 95.454 13.261 29.611 30.771 55.296 52.548 77.022 21.777 21.743 46.404 38.895 73.865 51.524 27.46 12.595 55.415 18.893 83.831 18.893 32.802 0 59.46-8.192 80.009-24.576 20.531-16.384 35.209-35.601 44.032-57.651l13.227 65.212h28.365l-58.368-277.862c-0.631-3.174-0.939-6.007-0.939-8.499 0-2.526 0-5.359 0-8.516 0-17.015 5.001-30.396 15.036-40.175s21.931-14.643 35.703-14.643c9.404 0 20.531 2.833 33.365 8.516 12.868 5.666 25.361 15.582 37.598 29.764 12.203 14.165 22.562 33.553 30.993 58.112 8.465 24.576 12.698 55.45 12.698 92.621 0 39.697-6.605 76.561-19.831 110.575-13.227 34.031-32 63.642-56.235 88.849-24.269 25.19-53.094 44.885-86.494 59.068s-70.263 21.265-110.575 21.265c-46.643 0-90.726-9.591-132.318-28.774-41.591-19.2-78.148-44.51-109.636-75.964-31.522-31.454-56.405-67.942-74.667-109.466-18.278-41.54-27.409-84.292-27.409-128.341 0-38.383 6.758-73.916 20.309-106.633 13.534-32.734 32.614-61.184 57.19-85.402s53.709-43.23 87.433-57.088c33.69-13.858 70.4-20.77 110.097-20.77 35.277 0 67.26 4.727 95.932 14.217s55.893 22.391 81.732 38.707l15.138-21.726c-29.628-18.893-60.962-33.553-94.037-43.947s-67.277-15.599-102.554-15.599zM468.241 284.228c19.524 0 37.803 3.157 54.818 9.455s32.614 14.49 46.78 24.576c14.165 10.069 27.102 21.265 38.758 33.553 11.639 12.288 21.572 24.713 29.764 37.342l32.137 148.378c-3.174 9.455-7.731 19.217-13.705 29.303-6.007 10.069-13.739 19.524-23.159 28.348-9.472 8.823-20.804 16.060-34.031 21.743-13.227 5.666-28.331 8.516-45.363 8.516-27.733 0-53.555-6.144-77.5-18.432s-44.885-28.672-62.857-49.135c-17.954-20.48-32.137-43.793-42.53-69.939s-15.599-52.77-15.599-79.855c0-35.908 9.762-65.553 29.303-88.849 19.541-23.347 47.258-35.004 83.183-35.004z" />
<glyph unicode="&#xe90b;" glyph-name="billing-preferences" d="M578.714 931.814v-304.461h298.061zM443.853 236.826c-4.864 3.712-10.573 6.938-17.152 9.651-6.605 2.714-13.594 5.222-21.018 7.501v-97.434c10.317 1.152 18.867 3.379 25.754 6.656s12.365 7.219 16.512 11.802c4.147 4.582 7.168 9.523 9.011 14.822s2.79 10.522 2.79 15.667c0 6.861-1.434 12.877-4.301 18.022s-6.733 9.6-11.597 13.312zM327.117 342.835c0-6.016 1.357-11.238 4.096-15.667 2.688-4.429 6.426-8.218 11.136-11.366s10.24-6.016 16.512-8.602c6.298-2.56 13.158-4.864 20.608-6.861v87.578c-15.437-1.152-28.058-5.734-37.76-13.747-9.754-8.013-14.592-18.432-14.592-31.334zM519.117 561.357v391.731h-318.899c-31.872 0-57.933-26.061-57.933-57.933v-893.286c0-31.872 26.061-57.933 57.933-57.933h637.798c31.872 0 57.933 26.061 57.933 57.933v559.488h-376.832zM491.699 179.738c-3.277-9.421-8.55-18.022-15.846-25.754s-16.691-14.234-28.109-19.533c-11.469-5.299-25.472-8.525-42.061-9.651v-38.221h-26.189v38.221c-22.042 1.434-41.216 6.221-57.523 14.362-16.282 8.166-29.901 18.381-40.755 30.694l21.018 27.034c8.32-9.421 18.97-18.022 32-25.754 13.005-7.731 28.109-12.595 45.261-14.592v104.73c-10.854 2.842-21.658 6.144-32.41 9.856-10.726 3.712-20.301 8.499-28.749 14.362s-15.232 13.235-20.403 22.118c-5.146 8.883-7.731 19.891-7.731 33.050 0 11.162 2.227 21.402 6.682 30.694 4.429 9.293 10.573 17.382 18.432 24.243s17.331 12.39 28.339 16.512c11.008 4.147 22.938 6.656 35.84 7.501v39.501h26.189v-39.91c18.022-1.741 33.946-5.939 47.846-12.672 13.875-6.733 26.086-15.539 36.685-26.419l-21.453-26.189c-8.602 9.165-18.227 16.461-28.954 21.914-10.752 5.427-22.118 9.011-34.125 10.726v-93.133c11.136-3.149 22.144-6.733 33.050-10.726 10.854-4.019 20.608-9.165 29.158-15.462 8.602-6.298 15.539-14.157 20.813-23.603 5.299-9.421 7.962-21.171 7.962-35.2 0-9.677-1.69-19.251-4.966-28.698z" />
<glyph unicode="&#xe90c;" glyph-name="broadband" d="M565.026 198.263c24.849 35.874 49.22 86.238 58.556 152.474 32.068 5.939 57.617 13.158 77.090 19.951-13.158-77.943-65.297-142.49-135.646-172.425zM252.484 370.244c19.661-6.656 45.21-13.773 77.090-19.61 9.335-66.202 33.655-116.497 58.505-152.388-70.195 29.901-122.3 94.259-135.595 171.998zM388.506 620.459c-31.829-46.114-62.993-115.797-62.993-211.883 0-5.376 0.137-10.564 0.324-15.753-34.321 6.98-59.648 15.275-76.561 21.931 2.185 92.655 58.948 171.708 139.23 205.705zM455.031 637.201l1.365 0.102v-258.133c-33.707 0.751-63.744 3.209-89.856 6.793-0.427 7.441-0.751 14.985-0.751 22.63 0 71.1 18.756 134.417 55.723 188.262 11.827 17.237 23.723 30.583 33.519 40.346zM454.98 181.333c-9.813 9.626-21.692 22.767-33.519 39.885-25.361 36.591-41.916 77.892-49.971 123.102 25.276-3.021 53.555-5.188 84.907-5.803v-157.286l-1.417 0.102zM581.632 344.371c-8.021-45.261-24.559-86.562-49.971-123.153-11.827-17.118-25.412-30.549-35.226-40.209v157.85c31.386 0.649 59.972 2.441 85.197 5.513zM701.099 445.594c1.553-10.001 2.355-20.224 2.645-30.549-16.452-6.69-41.677-15.223-76.476-22.306 0.188 5.188 0.324 10.462 0.324 15.838 0 69.82-16.503 125.645-37.717 168.653-19.558 13.534-41.677 23.535-65.399 29.474 2.355-3.157 4.71-6.417 7.117-9.847 36.966-53.845 55.723-117.163 55.723-188.262 0-7.68-0.324-15.223-0.751-22.733-26.078-3.533-56.201-5.513-90.146-6.263v257.98c3.533-0.324 7.356-0.99 10.837-1.468l12.919 67.328c-14.234 2.116-28.809 3.26-43.605 3.26-163.123 0-295.373-133.188-295.373-297.455s132.25-297.404 295.373-297.404 295.339 133.137 295.339 297.404c0 17.391-1.553 34.372-4.386 50.927l-66.423-14.575zM695.723 470.34l66.526 14.609c-27.529 105.711-111.411 188.348-217.344 213.623l-12.919-67.226c79.292-19.985 142.046-81.886 163.738-161.007zM562.569 790.75l-12.919-67.226c115.849-27.255 207.548-117.589 237.244-233.148l66.441 14.575c-35.55 142.199-148.275 253.372-290.765 285.798z" />
<glyph unicode="&#xe90d;" glyph-name="broadband-plus-homephone" d="M206.621 315.687c12.895 18.622 25.546 44.757 30.394 79.138 16.647 3.081 29.904 6.833 40.008 10.358-6.833-40.453-33.892-73.955-70.402-89.496zM44.413 404.947c10.204-3.453 23.461-7.15 40.008-10.177 4.848-34.363 17.471-60.461 30.367-79.093-36.429 15.523-63.47 48.925-70.375 89.269zM115.014 534.813c-16.52-23.933-32.696-60.099-32.696-109.967 0-2.791 0.072-5.482 0.172-8.174-17.816 3.625-30.956 7.929-39.737 11.382 1.133 48.083 30.593 89.115 72.26 106.759zM149.54 543.495l0.707 0.054v-133.972c-17.49 0.39-33.085 1.667-46.633 3.525-0.217 3.86-0.39 7.775-0.39 11.744 0 36.9 9.733 69.759 28.917 97.706 6.135 8.953 12.315 15.877 17.399 20.942zM149.513 306.905c-5.093 4.993-11.255 11.817-17.399 20.697-13.158 18.994-21.758 40.425-25.935 63.887 13.122-1.568 27.793-2.691 44.068-3.009v-81.63l-0.734 0.054zM215.239 391.517c-4.159-23.489-12.75-44.929-25.935-63.914-6.135-8.881-13.185-15.858-18.278-20.87v81.92c16.284 0.344 31.128 1.269 44.213 2.864zM277.25 444.058c0.807-5.192 1.223-10.494 1.377-15.858-8.536-3.471-21.631-7.902-39.691-11.581 0.1 2.691 0.172 5.428 0.172 8.219 0 36.239-8.564 65.21-19.574 87.529-10.149 7.023-21.631 12.216-33.946 15.297 1.223-1.64 2.447-3.335 3.697-5.111 19.184-27.947 28.917-60.806 28.917-97.706 0-3.987-0.172-7.902-0.39-11.799-13.539-1.831-29.17-2.864-46.787-3.253v133.899c1.831-0.172 3.815-0.517 5.627-0.761l6.706 34.943c-7.385 1.096-14.952 1.695-22.628 1.695-84.657 0-153.301-69.125-153.301-154.379s68.626-154.352 153.283-154.352 153.283 69.097 153.283 154.352c0 9.026-0.807 17.843-2.275 26.434l-34.472-7.567zM274.459 456.899l34.526 7.585c-14.291 54.861-57.824 97.751-112.803 110.864l-6.706-34.888c41.15-10.367 73.719-42.501 84.983-83.56zM205.353 623.195l-6.706-34.888c60.126-14.146 107.719-61.032 123.134-121.004l34.481 7.567c-18.459 73.791-76.963 131.489-150.909 148.326zM916.933 376.293l83.261-84.122c0 0 23.48 23.688 23.48 23.715l0.027 0.054c5.374 5.428 4.857 13.738-0.054 18.677v0.082l-64.793 65.418c-5.147 5.174-13.366 5.029-18.423-0.054l-23.498-23.769zM704.014 591.324l85.173-86.007c0 0 23.48 23.688 23.48 23.715l0.027 0.054c5.374 5.428 4.83 13.738-0.054 18.677v0.082l-66.678 67.276c-5.147 5.202-13.366 5.093-18.396 0l-23.552-23.797zM685.681 540.124c0.172-36.492 18.051-93.275 89.867-167.646 124.221-128.598 204.338-101.086 218.13-86.578l-83.062 83.886c-11.581-11.69-26.515-1.314-55.205 22.311-18.967 15.65-40.851 36.665-59.773 60.38-13.276 16.647-25.029 34.091-12.877 46.37l-85.237 85.916c-4.839-6.099-11.962-21.205-11.844-44.639zM576.648 458.149h-46.651v46.642h-31.463v-46.642h-46.651v-31.472h46.651v-46.642h31.463v46.642h46.651z" />
<glyph unicode="&#xe90e;" glyph-name="clip" d="M227.328 15.462c-52.736 0-103.219 23.757-150.093 70.656-136.474 136.448-59.827 287.053-0.23 347.622l340.531 340.506c189.389 189.389 345.37 202.445 505.702 42.112 193.69-193.69 44.8-361.037 43.264-362.701l-196.352-216.499c-14.285-15.718-38.579-16.87-54.246-2.662-15.693 14.259-16.896 38.554-2.662 54.246l196.48 216.627c10.342 11.622 97.587 118.298-40.806 256.666-127.744 127.693-239.053 115.917-397.107-42.112l-340.275-340.275c-11.75-12.16-114.381-124.851 0-239.232 32.41-32.41 63.744-48.154 95.795-48.154 0.102 0 0.205 0 0.307 0 71.629 0.23 148.275 77.901 222.413 153.011l25.907 26.138 233.472 233.446c10.854 11.187 62.643 71.040-1.869 135.578-13.747 13.133-27.93 19.251-45.312 18.125-43.546-2.483-91.341-49.126-106.112-66.893l-2.458-2.688-260.762-260.787c-15.002-15.002-39.296-15.002-54.298 0s-15.002 39.296 0 54.298l259.558 259.584c12.109 14.336 78.387 88.346 159.386 93.184 37.939 2.176 74.086-11.546 103.731-39.936 49.946-49.946 66.406-110.285 46.848-170.496-13.978-43.034-41.318-71.219-44.39-74.291l-259.046-259.2c-85.171-86.298-173.235-175.514-276.813-175.846-0.179-0.026-0.384-0.026-0.563-0.026z" />
<glyph unicode="&#xe90f;" glyph-name="close-circle" d="M512 960c-282.767 0-512-229.233-512-512s229.233-512 512-512c282.767 0 512 229.233 512 512s-229.233 512-512 512zM760.17 269.697c18.37-18.421 18.37-48.349 0.026-66.693-8.901-8.953-20.769-13.88-33.411-13.88-12.59 0-24.458 4.902-33.359 13.829l-178.613 178.613-178.587-178.587c-8.901-8.953-20.769-13.855-33.411-13.855-12.59 0-24.433 4.902-33.385 13.855-18.37 18.421-18.37 48.349 0.026 66.719l178.432 178.432-178.458 178.458c-18.37 18.421-18.37 48.349 0.026 66.719 8.927 8.953 20.769 13.855 33.385 13.855s24.458-4.902 33.385-13.829l178.613-178.613 178.639 178.639c8.927 8.901 20.769 13.803 33.385 13.803v0c12.616 0 24.458-4.928 33.359-13.855 18.37-18.421 18.37-48.349-0.026-66.719l-178.432-178.432 178.407-178.458z" />
<glyph unicode="&#xe910;" glyph-name="close-remove" d="M559.787 450.748l272.026 272.043c13.329 13.329 13.329 34.935 0 48.265s-34.935 13.329-48.265 0l-272.316-272.316-272.316 272.316c-13.329 13.329-34.953 13.329-48.265 0-13.329-13.329-13.329-34.935 0-48.265l272.043-272.043-272.043-272.043c-13.329-13.329-13.329-34.935 0-48.265 6.673-6.673 15.394-10.001 24.132-10.001s17.476 3.328 24.132 10.001l272.316 272.299 272.316-272.299c6.673-6.673 15.394-10.001 24.132-10.001s17.459 3.328 24.132 10.001c13.329 13.329 13.329 34.935 0 48.265l-272.026 272.043z" />
<glyph unicode="&#xe911;" glyph-name="email" d="M1033.6 95.206h-1036.8v705.587h1036.8v-705.587zM48 146.406h934.4v603.187h-934.4v-603.187zM525.082 378.803l-505.933 366.438c-8.602 6.221-10.522 18.227-4.301 26.829 6.195 8.602 18.253 10.522 26.803 4.275l482.842-349.696 459.085 349.414c8.474 6.451 20.506 4.762 26.906-3.661 6.426-8.448 4.813-20.48-3.661-26.906l-481.741-366.694zM526.182 341.658l-502.093 363.674c-5.734 4.122-7.014 12.134-2.842 17.869 4.147 5.734 12.109 7.040 17.869 2.842l486.707-352.512 462.848 352.333c5.632 4.275 13.67 3.2 17.92-2.432 4.301-5.632 3.2-13.645-2.432-17.946l-477.978-363.827z" />
<glyph unicode="&#xe912;" glyph-name="foxteltv" d="M172.083 736.717v-453.683h279.791v-61.901h-143.309v-61.85h409.446v61.85h-143.309v61.901h279.791v453.683h-682.411zM233.506 674.867h559.582v-329.984h-559.582v329.984z" />
<glyph unicode="&#xe913;" glyph-name="homephone" d="M628.019 333.841l156.757-158.379c0 0 44.203 44.595 44.203 44.646l0.051 0.102c10.121 10.223 9.148 25.856-0.102 35.157v0.154l-121.975 123.153c-9.694 9.745-25.156 9.472-34.679-0.102l-44.254-44.732zM227.174 738.679l160.358-161.929c0 0 44.203 44.595 44.203 44.646l0.051 0.102c10.121 10.223 9.097 25.856-0.102 35.157v0.154l-125.525 126.652c-9.694 9.796-25.156 9.591-34.628 0l-44.356-44.783zM192.649 642.287c0.324-68.71 33.98-175.599 169.199-315.614 233.865-242.108 384.7-190.31 410.658-163.004l-156.382 157.935c-21.811-22.016-49.92-2.475-103.936 42.001-35.703 29.457-76.902 69.035-112.538 113.681-24.986 31.334-47.121 64.188-24.235 87.296l-160.478 161.758c-9.097-11.503-22.511-39.936-22.289-84.053z" />
<glyph unicode="&#xe914;" glyph-name="info" d="M507.87 113.067c-187.017 0-339.166 152.149-339.166 339.183 0 187.017 152.149 339.166 339.166 339.166s339.183-152.149 339.183-339.166c0-187.034-152.149-339.183-339.183-339.183zM507.87 757.282c-168.192 0-305.033-136.841-305.033-305.033 0-168.209 136.841-305.050 305.033-305.050 168.209 0 305.050 136.841 305.050 305.050 0 168.192-136.841 305.033-305.050 305.033zM502.835 360.158c-7.134 6.042-12.39 12.715-15.753 20.019-3.396 7.305-5.086 15.036-5.086 23.228 0 11.383 2.406 21.197 7.219 29.389 4.796 8.192 10.786 15.497 17.903 21.914 7.1 6.383 14.848 12.373 23.228 17.886 8.346 5.513 16.111 11.213 23.228 17.084 7.1 5.888 13.090 12.288 17.886 19.234 4.796 6.929 7.219 15.206 7.219 24.849 0 13.517-5.171 25.19-15.497 34.97-10.325 9.796-26.163 14.694-47.531 14.694-20.292 0-37.035-3.994-50.21-12.015-13.193-8.004-24.747-18.603-34.731-31.778l-26.709 28.843c12.817 16.742 28.928 29.986 48.333 39.799 19.405 9.796 41.95 14.694 67.567 14.694 16.384 0 30.993-2.133 43.81-6.417 12.8-4.284 23.757-10.155 32.836-17.63s16.026-16.299 20.821-26.436c4.83-10.155 7.219-20.924 7.219-32.324 0-13.534-2.594-25.105-7.731-34.731-5.171-9.609-11.588-18.142-19.234-25.617s-15.923-14.251-24.849-20.292c-8.892-6.059-17.169-12.015-24.815-17.903-7.68-5.871-14.080-12.1-19.234-18.688-5.171-6.588-7.731-14.148-7.731-22.682 0-4.284 1.246-8.823 3.738-13.619 2.475-4.796 6.042-8.994 10.667-12.544l-32.563-13.926zM514.048 256c-8.192 0-15.155 2.867-20.821 8.567-5.717 5.7-8.567 12.612-8.567 20.821 0 8.175 2.85 15.121 8.567 20.821 5.666 5.7 12.629 8.567 20.821 8.567s15.121-2.867 20.821-8.567c5.7-5.7 8.567-12.646 8.567-20.821 0-8.209-2.867-15.121-8.567-20.821s-12.629-8.567-20.821-8.567z" />
<glyph unicode="&#xe915;" glyph-name="info-bold" d="M508.587 113.493c-187.733 0-339.627 151.893-339.627 339.627s151.893 339.627 339.627 339.627c187.733 0 339.627-151.893 339.627-339.627-1.707-187.733-153.6-339.627-339.627-339.627zM508.587 734.72c-155.307 0-283.307-126.293-283.307-283.307 0-155.307 126.293-283.307 283.307-283.307 155.307 0 283.307 126.293 283.307 283.307-1.707 157.013-128 283.307-283.307 283.307zM503.467 371.2c-6.827 6.827-11.947 11.947-15.36 20.48-3.413 6.827-5.12 15.36-5.12 23.893 0 11.947 1.707 20.48 6.827 29.013s10.24 15.36 17.067 22.187c6.827 6.827 15.36 11.947 23.893 17.067s15.36 11.947 23.893 17.067c6.827 5.12 13.653 11.947 17.067 18.773 5.12 6.827 6.827 15.36 6.827 25.6 0 13.653-5.12 25.6-15.36 34.133-10.24 10.24-25.6 15.36-47.787 15.36-20.48 0-37.547-3.413-49.493-11.947-13.653-8.533-23.893-18.773-34.133-32.427l-27.307 29.013c13.653 17.067 29.013 30.72 47.787 39.253 18.773 10.24 42.667 15.36 68.267 15.36 17.067 0 30.72-1.707 44.373-6.827s23.893-10.24 32.427-17.067c8.533-6.827 15.36-17.067 20.48-25.6 5.12-10.24 6.827-20.48 6.827-32.427 0-13.653-3.413-25.6-8.533-34.133-5.12-10.24-11.947-18.773-18.773-25.6s-15.36-13.653-25.6-20.48c-8.533-6.827-17.067-11.947-25.6-17.067s-13.653-11.947-18.773-18.773c-5.12-6.827-8.533-13.653-8.533-22.187 0-5.12 1.707-8.533 3.413-13.653s6.827-8.533 10.24-11.947l-29.013-17.067zM513.707 255.147c-8.533 0-15.36 3.413-20.48 8.533s-8.533 11.947-8.533 20.48c0 8.533 3.413 15.36 8.533 20.48s11.947 8.533 20.48 8.533 15.36-3.413 20.48-8.533 8.533-11.947 8.533-20.48c0-8.533-3.413-15.36-8.533-20.48s-11.947-8.533-20.48-8.533zM513.707 243.2c-11.947 0-22.187 5.12-30.72 11.947-8.533 8.533-11.947 18.773-11.947 29.013 0 11.947 5.12 22.187 11.947 30.72 8.533 8.533 18.773 11.947 30.72 11.947s22.187-3.413 30.72-11.947c8.533-8.533 11.947-18.773 11.947-30.72s-3.413-22.187-11.947-30.72-18.773-10.24-30.72-10.24zM513.707 301.227c-5.12 0-8.533-1.707-11.947-5.12s-5.12-6.827-5.12-11.947c0-5.12 1.707-8.533 5.12-11.947 6.827-6.827 17.067-6.827 23.893 0 3.413 3.413 5.12 6.827 5.12 11.947s-1.707 8.533-5.12 11.947c-3.413 5.12-6.827 5.12-11.947 5.12zM500.053 355.84l-6.827 5.12c-8.533 6.827-15.36 15.36-18.773 23.893s-6.827 18.773-6.827 29.013c0 13.653 3.413 25.6 8.533 35.84 5.12 8.533 11.947 17.067 20.48 25.6 6.827 6.827 15.36 13.653 25.6 18.773 8.533 5.12 15.36 10.24 22.187 17.067 6.827 5.12 11.947 10.24 15.36 17.067 3.413 5.12 5.12 10.24 5.12 17.067 0 10.24-3.413 18.773-11.947 25.6s-20.48 11.947-39.253 11.947c-17.067 0-32.427-3.413-44.373-10.24s-22.187-17.067-30.72-29.013l-8.533-11.947-44.373 47.787 6.827 8.533c13.653 18.773 32.427 32.427 52.907 42.667s46.080 15.36 73.387 15.36c17.067 0 34.133-1.707 47.787-6.827s27.307-11.947 37.547-20.48c10.24-8.533 18.773-18.773 23.893-30.72s8.533-23.893 8.533-37.547c0-15.36-3.413-29.013-8.533-40.96-5.12-10.24-13.653-20.48-22.187-29.013s-17.067-15.36-27.307-22.187c-8.533-5.12-17.067-11.947-23.893-17.067s-11.947-10.24-17.067-17.067c-3.413-5.12-5.12-8.533-5.12-15.36 0-1.707 0-5.12 1.707-8.533s3.413-5.12 6.827-8.533l17.067-13.653-58.027-22.187zM515.413 606.72c23.893 0 44.373-6.827 56.32-18.773 13.653-11.947 18.773-27.307 18.773-44.373 0-11.947-3.413-22.187-10.24-32.427-5.12-8.533-11.947-15.36-20.48-22.187-6.827-6.827-15.36-11.947-23.893-17.067s-15.36-10.24-22.187-17.067c-6.827-5.12-11.947-11.947-15.36-18.773s-5.12-13.653-5.12-22.187c0-6.827 1.707-11.947 3.413-17.067 1.707-3.413 3.413-6.827 6.827-10.24l8.533 3.413c0 0 0 1.707-1.707 1.707-3.413 6.827-5.12 13.653-5.12 18.773 0 11.947 3.413 22.187 10.24 30.72 5.12 6.827 13.653 13.653 22.187 20.48s17.067 11.947 25.6 18.773c8.533 5.12 15.36 11.947 23.893 18.773 6.827 6.827 11.947 13.653 17.067 22.187 3.413 8.533 6.827 17.067 6.827 29.013 0 10.24-1.707 18.773-6.827 27.307-3.413 8.533-10.24 15.36-17.067 22.187-8.533 6.827-17.067 11.947-29.013 15.36s-25.6 5.12-39.253 5.12c-23.893 0-44.373-5.12-61.44-13.653-13.653-6.827-27.307-17.067-37.547-27.307l8.533-10.24c8.533 8.533 18.773 17.067 29.013 23.893 17.067 8.533 35.84 13.653 58.027 13.653z" />
<glyph unicode="&#xe916;" glyph-name="long-arrow-left" d="M506.709 117.692c-8.738 0-17.459 3.328-24.132 10.001l-296.175 296.175c-6.4 6.4-10.001 15.087-10.001 24.132s3.601 17.732 10.001 24.132l296.175 296.175c13.312 13.329 34.935 13.329 48.265 0s13.329-34.935 0-48.265l-272.026-272.043 272.043-272.026c13.329-13.329 13.329-34.935 0-48.265-6.673-6.673-15.411-10.018-24.149-10.018zM811.742 410.061h-591.275c-18.842 0-34.133 15.275-34.133 34.133 0 18.842 15.292 34.133 34.133 34.133h591.275c18.842 0 34.133-15.292 34.133-34.133 0-18.859-15.292-34.133-34.133-34.133z" />
<glyph unicode="&#xe917;" glyph-name="long-arrow-right" d="M515.55 778.308c8.738 0 17.459-3.328 24.132-10.001l296.175-296.175c6.4-6.4 10.001-15.087 10.001-24.132s-3.601-17.732-10.001-24.132l-296.175-296.175c-13.312-13.329-34.935-13.329-48.265 0s-13.329 34.935 0 48.265l272.043 272.043-272.043 272.043c-13.329 13.329-13.329 34.935 0 48.265 6.656 6.673 15.394 10.001 24.132 10.001zM210.534 485.939h591.258c18.842 0 34.133-15.275 34.133-34.133 0-18.842-15.292-34.133-34.133-34.133h-591.258c-18.842 0-34.133 15.292-34.133 34.133 0 18.876 15.275 34.133 34.133 34.133z" />
<glyph unicode="&#xe918;" glyph-name="magnifying-glass" d="M1005.837 48.591l-329.878 329.878c41.409 59.856 65.79 132.354 65.79 210.657 0 204.826-166.048 370.874-370.874 370.874s-370.874-166.048-370.874-370.874 166.048-370.874 370.874-370.874c79.928 0 153.768 25.542 214.346 68.55l329.44-329.44c12.59-12.59 29.102-18.886 45.614-18.886s32.998 6.295 45.614 18.886c25.155 25.207 25.155 66.022-0.052 91.229zM370.874 347.251c-133.36 0-241.875 108.515-241.875 241.875s108.515 241.875 241.875 241.875 241.875-108.515 241.875-241.875c0-133.36-108.515-241.875-241.875-241.875z" />
<glyph unicode="&#xe919;" glyph-name="minus" d="M0.052 511.984h1023.871v-127.994h-1023.871v127.994z" />
<glyph unicode="&#xe91a;" glyph-name="my-preferences" d="M31.115 821.067l-31.115-30.573 74.742-73.736 125.878 123.375-37.1 36.12-93.783-91.796zM325.002 815.727h702.068v-49.484h-702.068v49.484zM31.115 573.672l-31.115-30.599 74.742-73.71 125.878 123.375-37.1 36.094-93.783-91.77zM325.002 568.331h702.068v-49.484h-702.068v49.484zM31.115 328.572l-31.115-30.599 74.742-73.71 125.878 123.35-37.1 36.12-93.783-91.77zM325.002 323.206h702.068v-49.484h-702.068v49.484zM31.115 83.473l-31.115-30.599 74.742-73.736 125.878 123.375-37.1 36.12-93.783-91.77zM325.002 78.106h702.068v-49.484h-702.068v49.484z" />
<glyph unicode="&#xe91b;" glyph-name="my-profile" d="M955.471 727.729h-71.956v102.006l-148.519 2.265 0.748-104.271h-446.346l3.052 104.271-145.447-2.265v-104.271l-73.492 2.265c-40.625 0-73.511-32.926-73.511-73.492v-520.448c0-40.566 32.886-73.511 73.511-73.511h881.959c40.586 0 73.511 32.945 73.511 73.511v520.448c0 40.566-32.906 73.492-73.511 73.492zM776.999 790.292h62.996v-145.999h-62.996v145.999zM293.986 525.017c44.367 0 80.384-27.353 80.384-85.721 0-58.407-36.017-105.649-80.384-105.649s-80.423 47.242-80.423 105.649c0.020 58.348 36.057 85.721 80.423 85.721zM189.007 790.292h62.996v-145.999h-62.996v145.999zM134.735 209.191c0 0 8.743 69.908 28.534 83.102 19.791 13.154 76.839 21.937 76.839 21.937s36.962-39.503 52.657-39.503c15.675 0 52.657 39.503 52.657 39.503s57.029-8.802 76.859-21.937c23.237-15.518 29.046-83.102 29.046-83.102h-316.593zM881.959 244.027h-330.713v36.785h330.713v-36.785zM881.959 317.519h-330.713v36.785h330.713v-36.785zM881.959 391.030h-330.713v36.766h330.713v-36.766zM881.959 464.542h-330.713v36.726h330.713v-36.726z" />
<glyph unicode="&#xe91c;" glyph-name="my-usage-alerts" d="M832.693 360.461c-3.096 79.025-7.74 219.996-85.217 348.583-92.957 128.587-235.502 128.587-235.502 128.587s-142.545 0-235.502-128.587c-77.477-128.587-82.121-269.584-85.217-348.583-3.096-79.025 1.548-224.64-142.545-322.241 65.067 0 463.238 0 463.238 0s398.171 0 463.238 0c-144.041 97.601-139.371 243.242-142.493 322.241zM561.588 904.272c0-27.386-22.201-49.588-49.588-49.588s-49.588 22.201-49.588 49.588c0 27.386 22.201 49.588 49.588 49.588s49.588-22.201 49.588-49.588zM410.529 14.2h197.524c0 0-27.89-72.033-98.762-72.033-49.975 0-80.186 32.534-98.762 72.033z" />
<glyph unicode="&#xe91d;" glyph-name="phone-broadband" d="M262.468 459.571l0.034 0.068c6.861 6.946 6.178 17.527-0.068 23.842v0.102l-85.129 85.897c-1.638 1.655-3.516 2.884-5.53 3.703-0.734 0.307-1.536 0.256-2.304 0.461-1.314 0.324-2.611 0.768-3.942 0.768-1.434 0-2.816-0.461-4.198-0.836-0.683-0.188-1.399-0.137-2.048-0.41-1.997-0.819-3.857-2.048-5.478-3.686l-30.089-30.379 108.766-109.824c0 0.017 29.986 30.259 29.986 30.293zM748.971 466.432c1.553-10.001 2.355-20.224 2.645-30.549-16.452-6.69-41.677-15.223-76.476-22.306 0.188 5.188 0.324 10.462 0.324 15.838 0 69.82-16.503 125.645-37.717 168.653-19.558 13.534-41.677 23.518-65.399 29.474 2.355-3.157 4.71-6.417 7.117-9.847 36.966-53.845 55.723-117.163 55.723-188.262 0-7.68-0.324-15.223-0.751-22.733-26.078-3.533-56.201-5.513-90.146-6.263v257.98c3.533-0.324 7.356-0.99 10.837-1.468l12.919 67.328c-14.234 2.116-28.809 3.26-43.605 3.26-129.929 0-240.009-84.617-279.552-201.984l29.662-29.918 4.949-5.103v-1.365c7.868-13.039 6.246-30.293-4.864-41.523l-0.324 0.324c-4.625-5.393-13.312-14.165-29.696-30.686l-8.516-8.602c-4.898-6.093 7.851-23.518 17.954-36.198 20.599-25.805 46.831-52.292 73.847-74.581 7.919-6.519 19.968-16.418 30.14-23.228-29.303 31.829-50.039 71.765-57.668 116.395 19.661-6.656 45.21-13.773 77.090-19.61 4.233-29.986 11.622-56.525 20.668-80.128l15.411 15.582c5.171 5.205 11.742 8.397 18.842 9.489-5.393 15.735-9.984 31.881-12.988 48.742 25.276-3.021 53.555-5.188 84.907-5.803v-95.812l40.021-40.431v136.567c31.403 0.666 59.972 2.458 85.197 5.513-8.021-45.261-24.559-86.562-49.971-123.153-8.994-13.022-18.995-23.876-27.58-32.597 3.618-11.639 1.246-24.764-7.868-33.98l-0.324 0.324c-4.625-5.393-13.312-14.165-29.713-30.686l-11.247-11.332c7.185-0.529 14.353-1.109 21.658-1.109 163.123 0 295.339 133.137 295.339 297.404 0 17.391-1.553 34.372-4.386 50.91l-66.458-14.524zM373.402 429.414c0-5.376 0.137-10.564 0.324-15.753-34.321 6.98-59.648 15.275-76.561 21.931 2.167 92.638 58.931 171.708 139.23 205.705-31.829-46.114-62.993-115.797-62.993-211.883zM504.269 399.991c-33.707 0.751-63.744 3.209-89.856 6.793-0.427 7.458-0.751 15.002-0.751 22.63 0 71.1 18.756 134.417 55.723 188.262 11.827 17.254 23.723 30.601 33.519 40.363l1.365 0.102v-258.15zM612.898 219.085c24.849 35.874 49.22 86.238 58.556 152.474 32.051 5.939 57.617 13.158 77.090 19.951-13.158-77.943-65.297-142.473-135.646-172.425zM610.458 811.588l-12.919-67.226c115.849-27.255 207.548-117.589 237.244-233.148l66.423 14.575c-35.55 142.182-148.275 253.372-290.748 285.798zM743.595 491.179l66.526 14.609c-27.529 105.711-111.411 188.348-217.344 213.623l-12.919-67.226c79.292-19.985 142.046-81.903 163.738-161.007zM381.918 252.075c-0.034 0.034-0.068 0.068-0.102 0.102-2.526-1.28-5.171-2.082-8.038-2.082-13.124 0-30.379 12.954-56.73 34.645-24.218 19.985-52.156 46.831-76.339 77.107-16.947 21.248-31.966 43.537-16.435 59.204l-108.834 109.722c-1.536-1.946-3.277-4.625-4.983-8.004-5.154-10.121-10.24-26.573-10.138-49.015 0.222-46.609 23.040-119.108 114.756-214.067 5.649-5.837 11.196-11.366 16.691-16.708 1.741-1.69 3.447-3.294 5.171-4.932 3.789-3.618 7.561-7.134 11.281-10.53 1.877-1.707 3.755-3.396 5.632-5.052 3.635-3.226 7.236-6.349 10.82-9.353 1.69-1.434 3.379-2.884 5.052-4.267 4.574-3.772 9.097-7.39 13.551-10.82 0.529-0.41 1.092-0.87 1.621-1.28 5.001-3.823 9.916-7.407 14.763-10.82 1.417-1.007 2.816-1.929 4.215-2.884 3.43-2.355 6.844-4.642 10.189-6.81 1.621-1.041 3.226-2.048 4.83-3.055 3.191-1.98 6.332-3.874 9.438-5.7 1.468-0.853 2.953-1.741 4.403-2.56 3.703-2.082 7.339-4.045 10.923-5.888 0.734-0.375 1.502-0.819 2.236-1.178 4.318-2.185 8.533-4.181 12.663-6.025 1.109-0.495 2.167-0.922 3.26-1.382 3.038-1.314 6.025-2.56 8.96-3.686 1.365-0.529 2.697-1.024 4.045-1.519 2.662-0.99 5.291-1.894 7.885-2.748 1.28-0.427 2.543-0.853 3.806-1.229 2.901-0.905 5.751-1.707 8.55-2.441 0.785-0.205 1.604-0.461 2.389-0.666 3.55-0.887 7.014-1.655 10.377-2.321 0.836-0.171 1.638-0.273 2.475-0.427 2.526-0.461 5.018-0.853 7.424-1.195 1.109-0.154 2.185-0.273 3.26-0.393 2.116-0.239 4.181-0.444 6.229-0.597 1.058-0.085 2.099-0.171 3.14-0.222 2.167-0.119 4.284-0.188 6.349-0.205 0.717 0 1.451-0.051 2.15-0.034 3.226 0.017 6.315 0.154 9.284 0.375 0.717 0.051 1.417 0.119 2.116 0.188 2.594 0.239 5.12 0.529 7.509 0.922 0.358 0.051 0.734 0.102 1.092 0.154 2.645 0.444 5.12 0.973 7.475 1.553 0.597 0.154 1.178 0.307 1.758 0.461 12.766 3.396 21.419 8.533 25.498 12.817l-106.069 107.127c-1.775-1.929-3.652-3.294-5.598-4.284zM531.934 187.477c6.861 6.946 6.212 17.527-0.068 23.842v0.102l-82.722 83.524c-1.638 1.638-3.516 2.867-5.513 3.669-0.683 0.273-1.434 0.239-2.15 0.427-1.092 0.273-2.185 0.58-3.294 0.631 0 0 0 0.017-0.017 0.017-0.239 0.017-0.478 0.137-0.717 0.137-4.301 0-8.585-1.673-11.844-4.949l-30.003-30.345 106.325-107.418c0 0 29.986 30.242 29.986 30.276l0.017 0.085z" />
<glyph unicode="&#xe91e;" glyph-name="platinum-hd" d="M230.042 583.117v-315.221l268.203-157.679v315.221l-268.203 157.679zM811.025 583.117l-268.203-157.679v-315.221l268.203 157.679v315.221zM252.331 628.105l268.203-157.542 111.735 67.55-245.777 157.542-134.161-67.55zM408.798 718.234l268.203-157.679 111.735 67.55-245.914 157.679-134.025-67.55z" />
<glyph unicode="&#xe91f;" glyph-name="plus" d="M537.941 477.713v290.714c0 14.251-11.537 25.788-25.788 25.788s-25.788-11.537-25.788-25.788v-291.021h-291.021c-14.251 0-25.805-11.554-25.788-25.788 0-14.251 11.537-25.788 25.788-25.788h290.714v-290.731c0-14.251 11.537-25.788 25.788-25.788 7.134 0 13.568 2.884 18.244 7.543 4.676 4.676 7.561 11.11 7.543 18.244l0.017 291.004 291.004 0.017c7.134 0 13.568 2.884 18.244 7.543 4.676 4.676 7.543 11.11 7.543 18.244 0 14.251-11.537 25.788-25.788 25.788l-290.714 0.017z" />
<glyph unicode="&#xe920;" glyph-name="print" d="M136.533 879.453v-545.592h750.985v545.592h-750.985zM204.8 811.263h614.4v-409.187h-614.4v409.187zM0 402.102v-409.213h1024v409.213h-1024zM68.292 333.861h887.467v-272.783h-887.467v272.783zM307.2 708.941h409.6v-68.189h-409.6v68.189zM307.2 572.562h409.6v-68.189h-409.6v68.189zM819.226 265.646h68.292v-68.189h-68.292v68.189zM682.692 265.646h68.267v-68.189h-68.267v68.189z" />
<glyph unicode="&#xe921;" glyph-name="question-tooltip" d="M513.229 110.609c-187.529 0-340.070 152.559-340.070 340.070 0 187.529 152.559 340.070 340.070 340.070s340.070-152.559 340.070-340.070c-0.017-187.511-152.559-340.070-340.070-340.070zM513.229 743.134c-161.263 0-292.454-131.191-292.454-292.454 0-161.246 131.191-292.454 292.454-292.454 161.246 0 292.454 131.191 292.454 292.454-0.017 161.263-131.209 292.454-292.454 292.454zM488.55 346.436c-0.188 6.502-0.273 11.383-0.273 14.643 0 19.166 2.714 35.703 8.141 49.613 3.977 10.479 10.394 21.060 19.251 31.727 6.502 7.765 18.21 19.115 35.106 34.031s27.887 26.795 32.939 35.652c5.069 8.858 7.595 18.534 7.595 29.013 0 18.978-7.407 35.652-22.238 50.022-14.814 14.37-32.99 21.555-54.494 21.555-20.787 0-38.144-6.502-52.053-19.524s-23.040-33.348-27.375-60.996l-50.159 5.956c4.523 37.052 17.937 65.434 40.26 85.129 22.306 19.695 51.814 29.542 88.508 29.542 38.861 0 69.854-10.581 92.996-31.727s34.697-46.729 34.697-76.732c0-17.357-4.062-33.348-12.203-47.991s-24.047-32.444-47.718-53.402c-15.906-14.097-26.3-24.491-31.181-31.181s-8.499-14.37-10.837-23.040c-2.355-8.67-3.703-22.767-4.062-42.291h-46.899zM485.564 248.576v55.586h55.586v-55.586h-55.586z" />
<glyph unicode="&#xe922;" glyph-name="tick" d="M116.617 517.465l-111.354-93.279c0 0 272.098-254.023 414.982-454.442 39.698 87.326 226.233 440.558 593.372 873.186 22.337 68.703-35.721 58.297-35.721 58.297s-281.791-219.041-615.186-586.18c-99.971 67.465-246.093 202.419-246.093 202.419z" />
<glyph unicode="&#xe923;" glyph-name="unmeteredfoxteltv" d="M774.827 227.84c0 30.72 6.827 54.613 18.773 69.973 13.653 15.36 29.013 23.893 49.493 23.893 18.773 0 35.84-8.533 49.493-23.893s20.48-39.253 20.48-68.267c0-32.427-6.827-56.32-18.773-71.68-13.653-15.36-29.013-23.893-49.493-23.893s-35.84 8.533-49.493 23.893c-13.653 17.067-20.48 39.253-20.48 69.973zM805.547 227.84c0-20.48 3.413-35.84 11.947-46.080 6.827-10.24 17.067-15.36 29.013-15.36 10.24 0 20.48 5.12 27.307 15.36s11.947 25.6 11.947 46.080c0 20.48-3.413 35.84-11.947 46.080-6.827 10.24-17.067 15.36-29.013 15.36-10.24 0-20.48-5.12-27.307-15.36-8.533-10.24-11.947-25.6-11.947-46.080zM158.72 331.947c-1.707 22.187-8.533 30.72-30.72 27.307-22.187 3.413-29.013-6.827-23.893-29.013 10.24-54.613 30.72-105.813 61.44-151.893 6.827-10.24 13.653-29.013 30.72-13.653 13.653 10.24 29.013 20.48 11.947 42.667-27.307 37.547-44.373 80.213-49.493 124.587zM518.827 681.813c39.253-11.947 78.507-29.013 116.053-47.787 13.653-6.827 23.893-10.24 35.84 3.413 22.187 23.893 46.080 47.787 69.973 69.973 15.36 13.653 11.947 23.893-5.12 34.133-58.027 39.253-122.88 63.147-192.853 68.267-51.2 5.12-51.2 3.413-51.2-49.493 0-1.707 0-6.827 0-10.24 0-11.947 1.707-22.187 0-34.133-1.707-20.48 6.827-27.307 27.307-34.133zM155.307 611.84c-32.427-54.613-51.2-114.347-56.32-177.493 1.707-13.653-6.827-30.72 17.067-32.427 34.133-1.707 39.253-1.707 44.373 27.307 8.533 37.547 22.187 76.8 40.96 110.933 22.187 44.373 23.893 42.667-10.24 76.8-15.36 15.36-25.6 13.653-35.84-5.12zM914.773 437.76c-6.827 80.213-35.84 153.6-85.333 216.747-17.067 22.187-22.187 22.187-40.96 3.413-22.187-22.187-44.373-46.080-68.267-66.56-13.653-13.653-15.36-23.893-3.413-39.253 23.893-32.427 39.253-68.267 46.080-110.933-10.24 0-20.48 0-29.013 0-85.333 3.413-172.373 6.827-257.707 8.533-32.427 1.707-56.32-17.067-64.853-44.373-15.36-49.493 23.893-88.747 80.213-80.213 131.413 22.187 262.827 44.373 394.24 66.56 11.947 1.707 22.187 11.947 34.133 18.773v6.827c-1.707 6.827-3.413 13.653-5.12 20.48zM431.787 743.253c0 10.24 0 18.773 0 29.013 0 30.72-3.413 32.427-32.427 25.6-63.147-17.067-117.76-47.787-167.253-92.16-32.427-29.013-32.427-29.013-1.707-59.733 5.12-5.12 11.947-11.947 17.067-17.067 10.24-11.947 20.48-10.24 34.133-3.413 32.427 18.773 64.853 35.84 98.987 47.787 51.2 20.48 51.2 17.067 51.2 69.973z" />
</font>
</defs>
</svg>
